<svg width="692" height="476" xmlns="http://www.w3.org/2000/svg" version="1.1">

 <g>
  <title>Layer 1</title>
  <path id="svg_2" d="m641.86,1.32l1.79,3.77l1.45,3.69l1.1,3.61l0.75,3.54l0.56,4.31l0.26,4.19l-0.03,4.06l-0.34,3.94l-5.28,-2.24l-5.17,-1.4l-2.53,-0.39l-2.51,-0.18l-2.47,0.04l-2.45,0.24l0,0l0,0l0,0l-3.39,0.71l-3.33,1.12l-3.28,1.53l-3.21,1.96l-2.65,2.02l-2.45,2.34l-2.25,2.65l-2.06,2.96l-25.51,-13.32l2.19,-3.53l2.32,-3.31l2.45,-3.1l2.58,-2.87l2.71,-2.66l2.84,-2.45l2.97,-2.22l3.1,-2.01l0,0l0,0l0,0l0,0l3.52,-1.94l3.67,-1.68l3.83,-1.43l3.98,-1.16l4.14,-0.92l4.29,-0.65l4.44,-0.4l4.6,-0.14l5.14,0.33l2.23,0.41l2,0.58z" fill="#f19533"/>
  <path id="svg_3" d="m690.05,46.12l-43.1,-30.19l-0.75,-3.54l-1.1,-3.61l-1.45,-3.69l-1.79,-3.77l4.23,0.61l3.54,0.93l3.9,1.48l3.75,1.69l3.62,1.91l3.47,2.13l0,0l0,0l3.31,2.34l3.17,2.56l3.03,2.77l2.89,2.99l3.51,4.25l3.05,4.52l0,0l2.13,3.88l1.84,4.06l1.52,4.25l1.23,4.43z" fill="#faca39"/>
  <path id="svg_4" d="m690.05,46.12l1.18,6.38l0.39,4.32l0.05,4.36l-0.28,4.41l-0.6,4.44l-30.08,-22.52l-2.31,-4.09l-2.64,-3.65l-2.97,-3.19l-3.3,-2.75l0,0l-2.09,-1.4l0.34,-3.94l0.03,-4.06l-0.26,-4.19l-0.56,-4.31l43.1,30.19z" fill="#f7b834"/>
  <path id="svg_6" d="m578.86,30.47l25.51,13.32l-1.55,2.88l-1.22,2.94l-0.94,3.06l-0.62,3.09l-0.29,2.76l-0.06,2.76l0.19,2.82l0.44,2.78l0.67,2.74l0.9,2.67l1.12,2.57l1.32,2.47l1.53,2.35l1.73,2.2l1.9,2.05l2.08,1.88l2.22,1.68l2.37,1.48l2.42,1.23l2.55,1.02l3.23,0.92l3.4,0.58l3.42,0.2l3.55,-0.18l2.91,-0.42l2.79,-0.67l2.68,-0.9l2.55,-1.13l0,0l0,0l3.49,-2.07l3.23,-2.57l2.99,-3.06l2.73,-3.56l23.67,14.9l-3.65,5.11l-4.13,4.63l0,0l0,0l-4.32,3.91l-4.73,3.5l-4.95,3l-5.07,2.51l-5.19,1.99l-5.31,1.5l-3.41,0.69l-3.47,0.49l-3.51,0.28l-3.56,0.09l-6.32,-0.4l-6.22,-1.11l-6.18,-1.82l-5.95,-2.49l-5.7,-3.12l-5.32,-3.7l-4.89,-4.24l-4.39,-4.72l-3.45,-4.63l-3.01,-5.06l-2.58,-5.48l-2.14,-5.91l-1.63,-6.15l-1.01,-6.09l-0.38,-6.03l0.24,-5.98l0,0l0.87,-5.98l1.52,-5.92l2.14,-5.86l2.79,-5.8z" fill="#e76836"/>
  <path id="svg_7" d="m123.03,128.78l-8.66,5.2l-8.78,4.97l-8.88,4.76l-8.99,4.52l0,0l0,0l-10.14,4.78l-29.58,13.27l-4.03,1.94l-4.56,2.48l-10.74,6.61l-10.48,-21.5l-7.46,-15.81l-2.42,-5.77l-2.91,-7.76l-0.2,-0.56l-1.51,-4.74l-1.23,-4.76l-0.99,-4.95l-0.73,-5.01l-0.49,-5.19l-0.25,-5.47l0,-5.6l0.23,-5.9l0.78,-7.68l1.41,-7.4l2.04,-7.12l2.67,-6.84l0,0l0,0l0.11,-0.24l1.51,-2.94l1.73,-2.62l1.94,-2.32l2.16,-2.03l1.78,-1.34l1.89,-1.18l4.14,-1.88l4.7,-1.29l5.15,-0.68l6.38,-0.25l6.08,0.18l5.9,0.6l5.57,1.03l5.33,1.46l4.97,1.86l4.79,2.33l4.43,2.71l4.16,3.15l3.94,3.63l4.51,4.95l3.99,5.17l3.48,5.38l2.97,5.61l12.25,26.06l12.04,26.18z" fill="#80a4c8"/>
  <path id="svg_8" d="m690.79,70.03l-1.12,5.35l-1.58,5.18l-1.28,3.28l-1.48,3.21l-1.68,3.14l-1.88,3.07l-23.67,-14.9l1.92,-3.41l1.5,-3.47l1.06,-3.52l0.64,-3.56l0,0l0.21,-4.13l-0.35,-4.19l-0.91,-4.25l-1.46,-4.32l30.08,22.52z" fill="#f19533"/>
  <path id="svg_9" d="m123.03,128.78l37.44,79.35l-10.1,7.39l-10.22,6.76l-10.33,6.11l-10.46,5.47l-12.58,5.82l-13.06,5.39l-13.55,4.95l-14.03,4.52l-37.47,-77.23l10.74,-6.61l4.56,-2.48l4.03,-1.94l29.58,-13.27l10.14,-4.78l0,0l8.99,-4.52l8.88,-4.76l8.78,-4.97l8.66,-5.2z" fill="#6989a9"/>
  <path id="svg_10" d="m629.58,251.98l-12.33,-4.76l-12.36,-5.19l-12.39,-5.63l-12.43,-6.05l-6.8,-3.13l-7.09,-2.68l-7.38,-2.24l-7.68,-1.78l11.53,-65.82l0.38,-2.97l0.82,-3.43l1.6,-3.38l2.24,-0.56l2.55,-0.2l110.89,-0.23l0.38,0.18l0.1,0.42l-0.04,0.1l-51.99,107.35z" fill="#f19533"/>
  <path id="svg_11" d="m565.45,144.92l-1.6,3.38l-0.82,3.43l-0.38,2.97l-11.53,65.82l-5.13,33.59l-2.26,14.09l-1.74,12.47l-1.22,10.86l-0.7,9.23l-1.66,33.71l-0.72,-2.15l-4.71,-14.66l-6.45,-21.3l-6.25,-21.37l-7.69,-23.49l4.45,-9.94l14.42,-30.77l25.42,-53.65l2.79,-5.46l2.79,-4.68l0.11,-0.16l1.2,-1.14l1.68,-0.78z" fill="#e76836"/>
  <path id="svg_12" d="m388.73,165.15l-22.87,13.79l0,0l0,0l-14.91,8.61l-15.04,8.4l-15.16,8.17l-15.3,7.96l-10.79,-24.48l13.67,-9.3l13.98,-8.56l8.98,-4.83l9.22,-4.22l9.38,-0.18l9.21,0.2l9.03,0.57l8.86,0.94l5.74,1.1l6,1.83z" fill="#f19533"/>
  <path id="svg_13" d="m340.51,160.69l-9.22,4.22l-8.98,4.83l-13.98,8.56l-13.67,9.3l-3.2,-8.5l-0.32,-1.32l-0.14,-1.45l-0.15,-2.82l2.64,-2.7l3.1,-2.32l3.58,-1.93l4.04,-1.55l6.44,-1.77l5.84,-1.04l6.75,-0.72l6.77,-0.49l10.5,-0.3z" fill="#e76836"/>
  <path id="svg_14" d="m388.73,165.15l7.55,3.56l-87.94,49.87l-2.89,-6.5l15.3,-7.96l15.16,-8.17l15.04,-8.4l14.91,-8.61l22.87,-13.79z" fill="#f7b834"/>
  <path id="svg_15" d="m396.28,168.71l1.93,1.22l1.77,1.38l3.31,3.36l3.04,4.24l2.82,5.18l14.35,30.5l-9.68,4.16l-8.68,4l-7.68,3.83l-6.68,3.68l-30.47,17.38l-30.88,16.9l-21.09,-45.96l87.94,-49.87z" fill="#faca39"/>
  <path id="svg_16" d="m290.85,173.51l0.15,2.82l0.14,1.45l0.32,1.32l3.2,8.5l10.79,24.48l2.89,6.5l21.09,45.96l17.74,38.39l-68.71,143.58l-2.67,5.37l-2.12,3.73l-2.16,3.14l-2.36,2.71l-3.67,3.21l-3.86,2.63l-3.94,2.19l-4.19,1.86l-4.51,1.52l-4.7,1.15l-5.09,0.84l-8.87,0.89l-9.23,0.44l-9.6,0l-9.97,-0.45l-5.18,-0.47l-4.74,-0.7l-4.31,-0.93l-3.97,-1.18l-3.72,-1.46l-3.36,-1.71l-3.19,-2.04l-2.83,-2.28l-2.29,-2.24l-2.13,-2.53l-1.88,-2.65l-1.94,-3.16l-4.08,-7.82l-53.14,-111.55l-4.4,-9.23l19.55,-8.79l19.14,-9.29l13.17,-6.98l10.13,-5.86l9.94,-6.21l9.75,-6.54l9.56,-6.89l24.41,53.45l18.6,39.52l4.19,9.18l8.44,18.49l2.12,4.4l7.13,14.92l6.14,13.47l2.6,5.6l4.74,10.42l1.54,3.97l1.17,3.56l0.09,0.15l0.11,0.05l0.26,0.02l0.3,-0.18l0.12,-0.34l8.99,-111.12l7.01,-165.33l1.29,-1.95z" fill="#425971"/>
  <path id="svg_17" d="m289.56,175.46l-7.01,165.33l-10.51,-7.22l-10.02,-7.49l-9.52,-7.75l-9.02,-8.02l-5.64,-5.49l-6.82,-7.09l54.71,-116.25l1.7,-3.09l2.13,-2.93z" fill="#80a4c8"/>
  <path id="svg_18" d="m160.47,208.13l31.13,67.1l-9.56,6.89l-9.75,6.54l-9.94,6.21l-10.13,5.86l0,0l-13.17,6.98l-19.14,9.29l-19.55,8.79l-34.22,-71.25l14.03,-4.52l13.55,-4.95l13.06,-5.39l12.58,-5.82l10.46,-5.47l10.33,-6.11l10.22,-6.76l10.1,-7.39z" fill="#5a7693"/>
  <path id="svg_19" d="m423.5,214.59l40.61,86.36l-9.79,4.41l-9.39,4.64l-9,4.88l-8.6,5.12l-21.3,13.55l-19.55,12.48l-14.62,9.11l-24.69,-52.21l-17.74,-38.39l30.88,-16.9l30.47,-17.38l6.68,-3.68l7.68,-3.83l8.68,-4l9.68,-4.16z" fill="#f3a633"/>
  <path id="svg_20" d="m629.58,251.98l-16.53,34.22l-8.09,-5.08l-7.7,-4.42l-7.34,-3.77l-6.95,-3.11l-18.52,-7.74l-18.46,-7.97l5.13,-33.59l7.68,1.78l7.38,2.24l7.09,2.68l6.8,3.13l12.43,6.05l12.39,5.63l12.36,5.19l12.33,4.76z" fill="#f3a633"/>
  <path id="svg_21" d="m538.41,334.47l-0.4,15.23l-4.7,97.59l-1.91,-0.68l-1.38,-1.12l-0.57,-0.91l-7.82,-16.71l-10.93,-24.15l-7.98,-17.43l-25.83,-57.32l35.7,-77.47l7.69,23.49l6.25,21.37l6.45,21.3l4.71,14.66l0.72,2.15z" fill="#df4c3a"/>
  <path id="svg_22" d="m613.05,286.2l-38.75,80.34l-36.29,-16.84l0.4,-15.23l1.66,-33.71l0.7,-9.23l1.22,-10.86l1.74,-12.47l2.26,-14.09l18.46,7.97l18.52,7.74l6.95,3.11l7.34,3.77l7.7,4.42l8.09,5.08z" fill="#f7b834"/>
  <path id="svg_23" d="m282.55,340.79l-8.99,111.12l-0.12,0.34l-0.3,0.18l-0.26,-0.02l-0.11,-0.05l-0.09,-0.15l-1.17,-3.56l-1.54,-3.97l-4.74,-10.42l-2.6,-5.6l-6.14,-13.47l-7.13,-14.92l-2.12,-4.4l-8.44,-18.49l-4.19,-9.18l-18.6,-39.52l15.01,-30.95l6.82,7.09l5.64,5.49l9.02,8.02l9.52,7.75l10.02,7.49l10.51,7.22z" fill="#6989a9"/>
  <path id="svg_24" d="m464.11,300.95l12.78,28.02l25.83,57.32l-13.05,8.29l-8.1,4.75l0,0l-17.27,10.47l-17.07,10.81l-16.86,11.16l-16.65,11.51l-41.86,-88.14l14.62,-9.11l19.55,-12.48l21.3,-13.55l8.6,-5.12l9,-4.88l9.39,-4.64l9.79,-4.41z" fill="#ec8135"/>
  <path id="svg_25" d="m574.3,366.54l-40.69,83.22l-0.3,-2.47l4.7,-97.59l36.29,16.84z" fill="#faca39"/>
  <path id="svg_26" d="m533.31,447.29l0.3,2.47l-1.67,3.84l-2.12,3.54l0,0l-3.09,3.79l-3.72,3.36l-3.22,2.29l-3.53,2.07l-3.66,1.75l-3.97,1.52l-4.17,1.26l-4.46,1.01l-4.83,0.79l-5.18,0.56l-11.07,0.62l-11.05,0.01l0,0l-12.36,-0.72l-5.94,-0.84l-6.22,-1.49l-3.45,-1.14l-3.26,-1.4l-3.07,-1.66l-2.89,-1.92l0,0l0,0l0,0l-2.88,-2.35l-2.66,-2.64l-2.45,-2.95l-2.22,-3.24l-1.76,-2.92l-2.61,-4.74l-2.38,-4.88l16.65,-11.51l16.86,-11.16l17.07,-10.81l17.27,-10.47l0,0l8.1,-4.75l13.05,-8.29l7.98,17.43l10.93,24.15l7.82,16.71l0.57,0.91l1.38,1.12l1.91,0.68z" fill="#e76836"/>
 </g>
</svg>